<svg width="32" height="32" viewBox="0 0 32 32" fill="none" xmlns="http://www.w3.org/2000/svg">
<path d="M26.8676 11.2246H20.7046C20.3595 8.86155 19.0776 8.02462 16.1687 8.02462C13.7528 8.02462 12.3723 8.61539 12.3723 10.0431C12.3723 11.4708 13.7035 12.0616 16.3166 12.8C19.0776 13.5877 21.6907 14.1292 23.5642 14.8677C26.128 15.9015 27.5578 17.5754 27.5578 20.7261C27.5578 25.7477 23.86 28.7508 16.9575 28.7508C9.51262 28.7508 5.37111 25.2554 5.2725 20.3323H11.8792C11.8792 22.5969 13.8021 23.9261 16.9082 23.9261C19.1762 23.9261 21.1976 23.2369 21.1976 21.4154C21.1976 19.6923 19.3734 19.1508 17.3026 18.6585C13.2104 17.6738 10.9424 16.9846 9.2168 15.9015C6.94883 14.4738 6.15997 12.6031 6.15997 10.4369C6.15997 6.35078 8.97028 3.24924 16.3659 3.24924C23.367 3.24924 26.5224 6.00616 26.8676 11.2246Z" fill="#FF3E00"/>
</svg>
