<?xml version="1.0" encoding="utf-8"?><svg width="24" height="24" fill="none" xmlns="http://www.w3.org/2000/svg" viewBox="0 0 24 24"><path d="M9.99 17.98A7.99 7.99 0 109.99 2a7.99 7.99 0 000 15.98zM12.98 19.88c.9 1.27 2.37 2.1 4.05 2.1 2.73 0 4.95-2.22 4.95-4.95 0-1.66-.82-3.13-2.07-4.03" stroke="#000" stroke-width="1.5" stroke-linecap="round" stroke-linejoin="round"/><path d="M6.095 6.176h7.77m-3.885 0v3.33m0 5.55v-3.31m0 0c-.977 0-1.927-.108-2.703-.309-.775-.2-1.333-.482-1.586-.8-.253-.32-.187-.657.187-.962.374-.305 1.036-.56 1.882-.724m2.22 2.796c.977 0 1.927-.109 2.703-.31.775-.2 1.333-.482 1.585-.8.253-.32.188-.657-.186-.962-.374-.305-1.036-.56-1.882-.724" stroke="#000" stroke-width="1.5" stroke-linecap="round" stroke-linejoin="round"/></svg>