<?xml version="1.0" encoding="utf-8"?><svg width="16" height="16" fill="none" xmlns="http://www.w3.org/2000/svg" viewBox="0 0 16 16"><path d="M2.667 3.6a.93.93 0 01.934-.933h4.8a.93.93 0 01.933.933V4a.667.667 0 101.333 0v-.4a2.263 2.263 0 00-2.266-2.267H3.6A2.263 2.263 0 001.334 3.6v4.8a2.263 2.263 0 002.267 2.267H4a.666.666 0 100-1.334h-.4a.93.93 0 01-.934-.933V3.6z" fill="#818181"/><path d="M6 7.6A1.6 1.6 0 017.6 6h4.8A1.6 1.6 0 0114 7.6v4.8a1.6 1.6 0 01-1.6 1.6H7.6A1.6 1.6 0 016 12.4V7.6z" fill="#818181"/></svg>