<?xml version="1.0" encoding="utf-8"?><svg width="20" height="20" fill="none" xmlns="http://www.w3.org/2000/svg" viewBox="0 0 20 20"><path fill-rule="evenodd" clip-rule="evenodd" d="M16.633 1.458c-.727 0-1.363.4-1.698.99l-3-.616a.625.625 0 00-.7.369 290.9 290.9 0 00-1.286 3.07c-.188.46-.361.889-.496 1.234-1.599.077-3.077.492-4.298 1.153a2.555 2.555 0 10-3.18 3.809c-.074.32-.11.65-.11.989 0 1.7.958 3.202 2.433 4.262C5.773 17.777 7.791 18.42 10 18.42c2.21 0 4.226-.643 5.702-1.703 1.475-1.06 2.434-2.561 2.434-4.262a4.42 4.42 0 00-.11-.989 2.554 2.554 0 10-3.181-3.808c-1.158-.629-2.55-1.034-4.053-1.14l.314-.773c.349-.851.756-1.821 1.079-2.586l2.515.517a1.953 1.953 0 101.933-2.219zm-.701 1.952a.702.702 0 111.404 0 .702.702 0 01-1.404 0zm1.652 6.875c-.392-.736-.971-1.394-1.686-1.945a1.304 1.304 0 111.686 1.945zM4.103 8.34a1.305 1.305 0 10-1.686 1.945c.391-.736.97-1.394 1.686-1.945zm8.845 4.117a1.206 1.206 0 100-2.41 1.206 1.206 0 000 2.409M8.254 11.25a1.206 1.206 0 11-2.412 0 1.206 1.206 0 012.412 0zm-.879 2.607a.625.625 0 00-.667 1.057l.288.182a5.625 5.625 0 006.002 0l.287-.181a.624.624 0 10-.667-1.058l-.287.181a4.375 4.375 0 01-4.668 0l-.288-.18z" fill="#9A9A9A"/></svg>