<?xml version="1.0" encoding="utf-8"?><svg width="24" height="24" fill="none" xmlns="http://www.w3.org/2000/svg" viewBox="0 0 24 24"><path fill-rule="evenodd" clip-rule="evenodd" d="M12 3.858c.87 0 1.762.022 2.627.059l1.022.049.978.058.916.062.837.065a3.868 3.868 0 013.556 3.484l.04.432.077.926c.071.96.124 2.006.124 3.007 0 1-.053 2.046-.124 3.006l-.076.926-.041.433a3.867 3.867 0 01-3.557 3.484l-.835.064-.916.063-.979.058-1.021.049c-.876.038-1.752.057-2.628.059a63.083 63.083 0 01-2.628-.06l-1.022-.048-.978-.058-.916-.063-.837-.064a3.867 3.867 0 01-3.556-3.484l-.04-.433-.077-.926c-.077-1-.119-2.003-.124-3.006 0-1 .053-2.047.124-3.007l.077-.926.04-.432A3.867 3.867 0 015.618 4.15l.836-.065.916-.062.979-.058 1.022-.05A63.098 63.098 0 0112 3.859zM9.964 9.532v4.936c0 .47.51.763.916.53l4.275-2.469a.611.611 0 000-1.058L10.88 9.004a.61.61 0 00-.916.529v-.001z" fill="#9A9A9A"/></svg>