<?xml version="1.0" encoding="utf-8"?><svg viewBox="0 0 24 24" xmlns="http://www.w3.org/2000/svg" xmlns:xlink="http://www.w3.org/1999/xlink"><style>:root>svg{display:none}:root>svg:target{display:block}</style><svg fill="none" viewBox="0 0 24 24" id="arrow" xmlns="http://www.w3.org/2000/svg"><path d="M14.43 18.82c-.19 0-.38-.07-.53-.22a.754.754 0 010-1.06L19.44 12 13.9 6.46a.754.754 0 010-1.06c.29-.29.77-.29 1.06 0l6.07 6.07c.29.29.29.77 0 1.06l-6.07 6.07c-.15.15-.34.22-.53.22z" fill="#000"/><path d="M20.33 12.75H3.5c-.41 0-.75-.34-.75-.75s.34-.75.75-.75h16.83c.41 0 .75.34.75.75s-.34.75-.75.75z" fill="#000"/></svg><svg fill="none" viewBox="0 0 24 24" id="card" xmlns="http://www.w3.org/2000/svg"><path d="M22 9.25H2c-.41 0-.75-.34-.75-.75s.34-.75.75-.75h20c.41 0 .75.34.75.75s-.34.75-.75.75zM8 17.25H6c-.41 0-.75-.34-.75-.75s.34-.75.75-.75h2c.41 0 .75.34.75.75s-.34.75-.75.75zM14.5 17.25h-4c-.41 0-.75-.34-.75-.75s.34-.75.75-.75h4c.41 0 .75.34.75.75s-.34.75-.75.75z" fill="#000"/><path d="M17.56 21.25H6.44c-3.98 0-5.19-1.2-5.19-5.14V7.89c0-3.94 1.21-5.14 5.19-5.14h11.11c3.98 0 5.19 1.2 5.19 5.14v8.21c.01 3.95-1.2 5.15-5.18 5.15zm-11.12-17c-3.14 0-3.69.54-3.69 3.64v8.21c0 3.1.55 3.64 3.69 3.64h11.11c3.14 0 3.69-.54 3.69-3.64V7.89c0-3.1-.55-3.64-3.69-3.64H6.44z" fill="#000"/></svg><svg fill="none" viewBox="0 0 24 24" id="card-add" xmlns="http://www.w3.org/2000/svg"><path d="M13.5 9.25H2c-.41 0-.75-.34-.75-.75s.34-.75.75-.75h11.5c.41 0 .75.34.75.75s-.34.75-.75.75zM8 17.25H6c-.41 0-.75-.34-.75-.75s.34-.75.75-.75h2c.41 0 .75.34.75.75s-.34.75-.75.75zM14.5 17.25h-4c-.41 0-.75-.34-.75-.75s.34-.75.75-.75h4c.41 0 .75.34.75.75s-.34.75-.75.75z" fill="#000"/><path d="M17.56 21.25H6.44c-3.98 0-5.19-1.2-5.19-5.14V7.89c0-3.94 1.21-5.14 5.19-5.14h7.06c.41 0 .75.34.75.75s-.34.75-.75.75H6.44c-3.14 0-3.69.54-3.69 3.64v8.21c0 3.1.55 3.64 3.69 3.64h11.11c3.14 0 3.69-.54 3.69-3.64v-4.08c0-.41.34-.75.75-.75s.75.34.75.75v4.08c.01 3.95-1.2 5.15-5.18 5.15z" fill="#000"/><path d="M22 7h-5.5c-.41 0-.75-.34-.75-.75s.34-.75.75-.75H22c.41 0 .75.34.75.75S22.41 7 22 7z" fill="#000"/><path d="M19.25 9.75c-.41 0-.75-.34-.75-.75V3.5c0-.41.34-.75.75-.75s.75.34.75.75V9c0 .41-.34.75-.75.75z" fill="#000"/></svg><svg fill="none" viewBox="0 0 24 24" id="cards" xmlns="http://www.w3.org/2000/svg"><path d="M19 13.36H2c-.41 0-.75-.34-.75-.75s.34-.75.75-.75h17c.41 0 .75.34.75.75s-.34.75-.75.75z" fill="#000"/><path d="M15.22 21.75H5.78c-3.43 0-4.53-1.09-4.53-4.48v-6.99c0-2.69.61-4.28 3.71-4.46.26-.01.53-.02.82-.02h9.44c3.43 0 4.53 1.09 4.53 4.48v7.15c-.04 3.27-1.14 4.32-4.53 4.32zM5.78 7.3c-.27 0-.52.01-.75.02-1.79.11-2.28.49-2.28 2.96v6.99c0 2.56.42 2.98 3.03 2.98h9.44c2.58 0 3-.4 3.03-2.83v-7.14c0-2.56-.42-2.98-3.03-2.98H5.78z" fill="#000"/><path d="M19 18.18c-.19 0-.38-.07-.51-.2a.756.756 0 01-.24-.55v-7.15c0-2.56-.42-2.98-3.03-2.98H5.78c-.27 0-.52.01-.75.02-.2.01-.4-.07-.55-.21a.747.747 0 01-.23-.55c.04-3.26 1.14-4.31 4.53-4.31h9.44c3.43 0 4.53 1.09 4.53 4.48v6.99c0 2.69-.61 4.28-3.71 4.46H19zM5.78 5.8h9.44c3.43 0 4.53 1.09 4.53 4.48v6.32c1.16-.21 1.5-.81 1.5-2.88V6.73c0-2.56-.42-2.98-3.03-2.98H8.78c-2.28 0-2.87.31-3 2.05zM6.96 18.56H5.24c-.41 0-.75-.34-.75-.75s.34-.75.75-.75h1.72a.749.749 0 110 1.5zM12.55 18.56H9.11c-.41 0-.75-.34-.75-.75s.34-.75.75-.75h3.44a.749.749 0 110 1.5z" fill="#000"/></svg><svg fill="none" viewBox="0 0 24 24" id="check" xmlns="http://www.w3.org/2000/svg"><path d="M12 22.75C6.07 22.75 1.25 17.93 1.25 12S6.07 1.25 12 1.25 22.75 6.07 22.75 12 17.93 22.75 12 22.75zm0-20C6.9 2.75 2.75 6.9 2.75 12S6.9 21.25 12 21.25s9.25-4.15 9.25-9.25S17.1 2.75 12 2.75z" fill="#000"/><path d="M10.58 15.58a.75.75 0 01-.53-.22l-2.83-2.83a.754.754 0 010-1.06c.29-.29.77-.29 1.06 0l2.3 2.3 5.14-5.14c.29-.29.77-.29 1.06 0 .29.29.29.77 0 1.06l-5.67 5.67a.75.75 0 01-.53.22z" fill="#000"/></svg><svg fill="none" viewBox="0 0 16 16" id="check-linear" xmlns="http://www.w3.org/2000/svg"><path d="M13.333 4.667l-6.667 6.666L3.333 8" stroke="#74EB69" stroke-width="1.333" stroke-linecap="round" stroke-linejoin="round"/></svg><svg fill="none" viewBox="0 0 24 24" id="chevron" xmlns="http://www.w3.org/2000/svg"><path d="M12 16.8c-.7 0-1.4-.27-1.93-.8L3.55 9.48a.754.754 0 010-1.06c.29-.29.77-.29 1.06 0l6.52 6.52c.48.48 1.26.48 1.74 0l6.52-6.52c.29-.29.77-.29 1.06 0 .29.29.29.77 0 1.06L13.93 16c-.53.53-1.23.8-1.93.8z" fill="#000"/></svg><svg fill="none" viewBox="0 0 24 24" id="clipboard-close" xmlns="http://www.w3.org/2000/svg"><path d="M14 16.91c-.19 0-.38-.07-.53-.22l-3.96-3.96a.754.754 0 010-1.06c.29-.29.77-.29 1.06 0l3.96 3.96c.29.29.29.77 0 1.06-.15.14-.34.22-.53.22z" fill="#000"/><path d="M10 16.95c-.19 0-.38-.07-.53-.22a.754.754 0 010-1.06l3.96-3.96c.29-.29.77-.29 1.06 0 .29.29.29.77 0 1.06l-3.96 3.96c-.15.15-.34.22-.53.22zM14 6.75h-4c-.96 0-2.75 0-2.75-2.75S9.04 1.25 10 1.25h4c.96 0 2.75 0 2.75 2.75 0 .96 0 2.75-2.75 2.75zm-4-4c-.99 0-1.25 0-1.25 1.25S9.01 5.25 10 5.25h4c1.25 0 1.25-.26 1.25-1.25 0-1.25-.26-1.25-1.25-1.25h-4z" fill="#000"/><path d="M15 22.75H9c-5.62 0-6.75-2.58-6.75-6.75v-6c0-4.56 1.65-6.51 5.71-6.72.42-.02.77.29.79.71.02.42-.3.76-.71.78C5.2 4.93 3.75 5.78 3.75 10v6c0 3.7.73 5.25 5.25 5.25h6c4.52 0 5.25-1.55 5.25-5.25v-6c0-4.22-1.45-5.07-4.29-5.23a.757.757 0 01-.71-.79c.02-.41.38-.73.79-.71 4.06.22 5.71 2.17 5.71 6.72v6c0 4.18-1.13 6.76-6.75 6.76z" fill="#000"/></svg><svg fill="none" viewBox="0 0 24 24" id="close" xmlns="http://www.w3.org/2000/svg"><path d="M5.813 17.127L17.127 5.813c.29-.29.77-.29 1.06 0 .29.29.29.77 0 1.06L6.873 18.187c-.29.29-.77.29-1.06 0a.756.756 0 010-1.06z" fill="#000"/><path d="M5.813 5.813c.29-.29.77-.29 1.06 0l11.314 11.314c.29.29.29.77 0 1.06-.29.29-.77.29-1.06 0L5.813 6.873a.755.755 0 010-1.06z" fill="#000"/></svg><svg fill="none" viewBox="0 0 24 24" id="coin" xmlns="http://www.w3.org/2000/svg"><path d="M9.99 17.98A7.99 7.99 0 109.99 2a7.99 7.99 0 000 15.98zM12.98 19.88c.9 1.27 2.37 2.1 4.05 2.1 2.73 0 4.95-2.22 4.95-4.95 0-1.66-.82-3.13-2.07-4.03" stroke="#000" stroke-width="1.5" stroke-linecap="round" stroke-linejoin="round"/><path d="M6.095 6.176h7.77m-3.885 0v3.33m0 5.55v-3.31m0 0c-.977 0-1.927-.108-2.703-.309-.775-.2-1.333-.482-1.586-.8-.253-.32-.187-.657.187-.962.374-.305 1.036-.56 1.882-.724m2.22 2.796c.977 0 1.927-.109 2.703-.31.775-.2 1.333-.482 1.585-.8.253-.32.188-.657-.186-.962-.374-.305-1.036-.56-1.882-.724" stroke="#000" stroke-width="1.5" stroke-linecap="round" stroke-linejoin="round"/></svg><svg fill="none" viewBox="0 0 24 24" id="copy" xmlns="http://www.w3.org/2000/svg"><path d="M16 12.9v4.2c0 3.5-1.4 4.9-4.9 4.9H6.9C3.4 22 2 20.6 2 17.1v-4.2C2 9.4 3.4 8 6.9 8h4.2c3.5 0 4.9 1.4 4.9 4.9z" fill="#000"/><path d="M17.1 2h-4.2C9.817 2 8.371 3.094 8.07 5.739c-.063.553.395 1.011.952 1.011H11.1c4.2 0 6.15 1.95 6.15 6.15v2.078c0 .557.458 1.015 1.011.952C20.906 15.63 22 14.183 22 11.1V6.9C22 3.4 20.6 2 17.1 2z" fill="#000"/></svg><svg fill="none" viewBox="0 0 16 16" id="copy-liner" xmlns="http://www.w3.org/2000/svg"><path d="M2.667 3.6a.93.93 0 01.934-.933h4.8a.93.93 0 01.933.933V4a.667.667 0 101.333 0v-.4a2.263 2.263 0 00-2.266-2.267H3.6A2.263 2.263 0 001.334 3.6v4.8a2.263 2.263 0 002.267 2.267H4a.666.666 0 100-1.334h-.4a.93.93 0 01-.934-.933V3.6z" fill="#818181"/><path d="M6 7.6A1.6 1.6 0 017.6 6h4.8A1.6 1.6 0 0114 7.6v4.8a1.6 1.6 0 01-1.6 1.6H7.6A1.6 1.6 0 016 12.4V7.6z" fill="#818181"/></svg><svg fill="none" viewBox="0 0 24 24" id="direct-link" xmlns="http://www.w3.org/2000/svg"><path d="M13 11.75c-.19 0-.38-.07-.53-.22a.754.754 0 010-1.06l8.2-8.2c.29-.29.77-.29 1.06 0 .29.29.29.77 0 1.06l-8.2 8.2c-.15.15-.34.22-.53.22z" fill="#000"/><path d="M22 7.55c-.41 0-.75-.34-.75-.75V2.75H17.2c-.41 0-.75-.34-.75-.75s.34-.75.75-.75H22c.41 0 .75.34.75.75v4.8c0 .41-.34.75-.75.75zM15 22.75H9c-5.43 0-7.75-2.32-7.75-7.75V9c0-5.43 2.32-7.75 7.75-7.75h2c.41 0 .75.34.75.75s-.34.75-.75.75H9C4.39 2.75 2.75 4.39 2.75 9v6c0 4.61 1.64 6.25 6.25 6.25h6c4.61 0 6.25-1.64 6.25-6.25v-2c0-.41.34-.75.75-.75s.75.34.75.75v2c0 5.43-2.32 7.75-7.75 7.75z" fill="#000"/></svg><svg fill="none" viewBox="0 0 4 18" id="dots" xmlns="http://www.w3.org/2000/svg"><circle cx="2" cy="2" r="2" fill="#CECECE"/><circle cx="2" cy="9" r="2" fill="#CECECE"/><circle cx="2" cy="16" r="2" fill="#CECECE"/></svg><svg fill="none" viewBox="0 0 24 24" id="element" xmlns="http://www.w3.org/2000/svg"><path d="M19.77 11.25h-4.04c-2.01 0-2.98-.89-2.98-2.73V3.98c0-1.84.98-2.73 2.98-2.73h4.04c2.01 0 2.98.89 2.98 2.73v4.53c0 1.85-.98 2.74-2.98 2.74zm-4.04-8.5c-1.34 0-1.48.38-1.48 1.23v4.53c0 .86.14 1.23 1.48 1.23h4.04c1.34 0 1.48-.38 1.48-1.23V3.98c0-.86-.14-1.23-1.48-1.23h-4.04zM19.77 22.75h-4.04c-2.01 0-2.98-.98-2.98-2.98v-4.04c0-2.01.98-2.98 2.98-2.98h4.04c2.01 0 2.98.98 2.98 2.98v4.04c0 2-.98 2.98-2.98 2.98zm-4.04-8.5c-1.18 0-1.48.3-1.48 1.48v4.04c0 1.18.3 1.48 1.48 1.48h4.04c1.18 0 1.48-.3 1.48-1.48v-4.04c0-1.18-.3-1.48-1.48-1.48h-4.04zM8.27 11.25H4.23c-2.01 0-2.98-.89-2.98-2.73V3.98c0-1.84.98-2.73 2.98-2.73h4.04c2.01 0 2.98.89 2.98 2.73v4.53c0 1.85-.98 2.74-2.98 2.74zm-4.04-8.5c-1.34 0-1.48.38-1.48 1.23v4.53c0 .86.14 1.23 1.48 1.23h4.04c1.34 0 1.48-.38 1.48-1.23V3.98c0-.86-.14-1.23-1.48-1.23H4.23zM8.27 22.75H4.23c-2.01 0-2.98-.98-2.98-2.98v-4.04c0-2.01.98-2.98 2.98-2.98h4.04c2.01 0 2.98.98 2.98 2.98v4.04c0 2-.98 2.98-2.98 2.98zm-4.04-8.5c-1.18 0-1.48.3-1.48 1.48v4.04c0 1.18.3 1.48 1.48 1.48h4.04c1.18 0 1.48-.3 1.48-1.48v-4.04c0-1.18-.3-1.48-1.48-1.48H4.23z" fill="#000"/></svg><svg fill="none" viewBox="0 0 24 24" id="export" xmlns="http://www.w3.org/2000/svg"><path d="M16.44 8.9c3.6.31 5.07 2.16 5.07 6.21v.13c0 4.47-1.79 6.26-6.26 6.26H8.74c-4.47 0-6.26-1.79-6.26-6.26v-.13c0-4.02 1.45-5.87 4.99-6.2M12 15V3.62M15.35 5.85L12 2.5 8.65 5.85" stroke="#000" stroke-width="1.5" stroke-linecap="round" stroke-linejoin="round"/></svg><svg fill="none" viewBox="0 0 20 20" id="facebook" xmlns="http://www.w3.org/2000/svg"><path d="M11.667 11.25h2.083l.834-3.333h-2.917V6.25c0-.858 0-1.667 1.667-1.667h1.25v-2.8a23.474 23.474 0 00-2.381-.116c-2.263 0-3.87 1.38-3.87 3.916v2.334h-2.5v3.333h2.5v7.083h3.334V11.25z" fill="#9A9A9A"/></svg><svg fill="none" viewBox="0 0 24 24" id="folder" xmlns="http://www.w3.org/2000/svg"><path d="M17 22.75H7c-4.41 0-5.75-1.34-5.75-5.75V7c0-4.41 1.34-5.75 5.75-5.75h1.5c1.75 0 2.3.57 3 1.5l1.5 2c.33.44.38.5 1 .5h3c4.41 0 5.75 1.34 5.75 5.75v6c0 4.41-1.34 5.75-5.75 5.75zm-10-20c-3.57 0-4.25.68-4.25 4.25v10c0 3.57.68 4.25 4.25 4.25h10c3.57 0 4.25-.68 4.25-4.25v-6c0-3.57-.68-4.25-4.25-4.25h-3c-1.28 0-1.7-.44-2.2-1.1l-1.5-2c-.52-.69-.67-.9-1.8-.9H7z" fill="#000"/></svg><svg fill="none" viewBox="0 0 24 24" id="global" xmlns="http://www.w3.org/2000/svg"><path d="M12 22.75C6.07 22.75 1.25 17.93 1.25 12S6.07 1.25 12 1.25 22.75 6.07 22.75 12 17.93 22.75 12 22.75zm0-20C6.9 2.75 2.75 6.9 2.75 12S6.9 21.25 12 21.25s9.25-4.15 9.25-9.25S17.1 2.75 12 2.75z" fill="#000"/><path d="M9 21.75H8c-.41 0-.75-.34-.75-.75s.32-.74.73-.75a29.49 29.49 0 010-16.5.745.745 0 01-.73-.75c0-.41.34-.75.75-.75h1c.24 0 .47.12.61.31.14.2.18.45.1.68a27.948 27.948 0 000 17.53c.08.23.04.48-.1.68-.14.18-.37.3-.61.3zM15 21.75a.745.745 0 01-.71-.99 27.948 27.948 0 000-17.53.749.749 0 111.42-.48 29.318 29.318 0 010 18.47c-.1.33-.4.53-.71.53z" fill="#000"/><path d="M12 17.2c-2.79 0-5.57-.39-8.25-1.18-.01.4-.34.73-.75.73s-.75-.34-.75-.75v-1c0-.24.12-.47.31-.61.2-.14.45-.18.68-.1a27.948 27.948 0 0017.53 0 .75.75 0 01.68.1c.2.14.31.37.31.61v1c0 .41-.34.75-.75.75s-.74-.32-.75-.73c-2.69.79-5.47 1.18-8.26 1.18zM21 9.75c-.08 0-.16-.01-.24-.04a27.948 27.948 0 00-17.53 0c-.4.13-.82-.08-.95-.47-.12-.4.09-.82.48-.95a29.318 29.318 0 0118.47 0c.39.13.61.56.47.95a.73.73 0 01-.7.51z" fill="#000"/></svg><svg fill="none" viewBox="0 0 24 24" id="home" xmlns="http://www.w3.org/2000/svg"><path d="M17.79 22.75H6.21c-2.74 0-4.96-2.23-4.96-4.97v-7.41c0-1.36.84-3.07 1.92-3.91l5.39-4.2C10.18 1 12.77.94 14.45 2.12l6.18 4.33c1.19.83 2.12 2.61 2.12 4.06v7.28c0 2.73-2.22 4.96-4.96 4.96zM9.48 3.44l-5.39 4.2c-.71.56-1.34 1.83-1.34 2.73v7.41a3.47 3.47 0 003.46 3.47h11.58c1.91 0 3.46-1.55 3.46-3.46v-7.28c0-.96-.69-2.29-1.48-2.83l-6.18-4.33c-1.14-.8-3.02-.76-4.11.09z" fill="#000"/><path d="M12 18.75c-.41 0-.75-.34-.75-.75v-3c0-.41.34-.75.75-.75s.75.34.75.75v3c0 .41-.34.75-.75.75z" fill="#000"/></svg><svg fill="none" viewBox="0 0 24 24" id="info-circle" xmlns="http://www.w3.org/2000/svg"><path d="M12 22.75C6.07 22.75 1.25 17.93 1.25 12S6.07 1.25 12 1.25 22.75 6.07 22.75 12 17.93 22.75 12 22.75zm0-20C6.9 2.75 2.75 6.9 2.75 12S6.9 21.25 12 21.25s9.25-4.15 9.25-9.25S17.1 2.75 12 2.75z" fill="#000"/><path d="M12 13.75c-.41 0-.75-.34-.75-.75V8c0-.41.34-.75.75-.75s.75.34.75.75v5c0 .41-.34.75-.75.75zM12 17c-.13 0-.26-.03-.38-.08s-.23-.12-.33-.21c-.09-.1-.16-.2-.21-.33A.995.995 0 0111 16c0-.13.03-.26.08-.38s.12-.23.21-.33c.1-.09.21-.16.33-.21a1 1 0 01.76 0c.12.05.23.12.33.21.09.1.16.21.21.33.05.12.08.25.08.38s-.03.26-.08.38c-.05.13-.12.23-.21.33-.1.09-.21.16-.33.21-.12.05-.25.08-.38.08z" fill="#000"/></svg><svg fill="none" viewBox="0 0 24 24" id="link" xmlns="http://www.w3.org/2000/svg"><path d="M12.5 14.75H10c-.41 0-.75-.34-.75-.75s.34-.75.75-.75h2.5c2.62 0 4.75-2.13 4.75-4.75s-2.13-4.75-4.75-4.75h-5c-2.62 0-4.75 2.13-4.75 4.75 0 1.1.39 2.17 1.09 3.02.26.32.22.79-.1 1.06-.32.26-.79.22-1.06-.1A6.236 6.236 0 011.24 8.5c0-3.45 2.8-6.25 6.25-6.25h5c3.45 0 6.25 2.8 6.25 6.25s-2.79 6.25-6.24 6.25z" fill="#000"/><path d="M16.5 21.75h-5c-3.45 0-6.25-2.8-6.25-6.25s2.8-6.25 6.25-6.25H14c.41 0 .75.34.75.75s-.34.75-.75.75h-2.5c-2.62 0-4.75 2.13-4.75 4.75s2.13 4.75 4.75 4.75h5c2.62 0 4.75-2.13 4.75-4.75 0-1.1-.39-2.17-1.09-3.02a.758.758 0 01.1-1.06.75.75 0 011.06.1 6.236 6.236 0 011.44 3.98c-.01 3.45-2.81 6.25-6.26 6.25z" fill="#000"/></svg><svg fill="none" viewBox="0 0 24 24" id="location" xmlns="http://www.w3.org/2000/svg"><path d="M12 14.17c-2.13 0-3.87-1.73-3.87-3.87S9.87 6.44 12 6.44s3.87 1.73 3.87 3.87-1.74 3.86-3.87 3.86zm0-6.23c-1.3 0-2.37 1.06-2.37 2.37s1.06 2.37 2.37 2.37 2.37-1.06 2.37-2.37S13.3 7.94 12 7.94z" fill="#000"/><path d="M12 22.76a5.97 5.97 0 01-4.13-1.67c-2.95-2.84-6.21-7.37-4.98-12.76C4 3.44 8.27 1.25 12 1.25h.01c3.73 0 8 2.19 9.11 7.09 1.22 5.39-2.04 9.91-4.99 12.75A5.97 5.97 0 0112 22.76zm0-20.01c-2.91 0-6.65 1.55-7.64 5.91C3.28 13.37 6.24 17.43 8.92 20a4.426 4.426 0 006.17 0c2.67-2.57 5.63-6.63 4.57-11.34-1-4.36-4.75-5.91-7.66-5.91z" fill="#000"/></svg><svg fill="none" viewBox="0 0 24 24" id="lock" xmlns="http://www.w3.org/2000/svg"><path d="M18 10.75c-.41 0-.75-.34-.75-.75V8c0-3.15-.89-5.25-5.25-5.25S6.75 4.85 6.75 8v2c0 .41-.34.75-.75.75s-.75-.34-.75-.75V8c0-2.9.7-6.75 6.75-6.75S18.75 5.1 18.75 8v2c0 .41-.34.75-.75.75zM12 19.25c-1.79 0-3.25-1.46-3.25-3.25s1.46-3.25 3.25-3.25 3.25 1.46 3.25 3.25-1.46 3.25-3.25 3.25zm0-5c-.96 0-1.75.79-1.75 1.75s.79 1.75 1.75 1.75 1.75-.79 1.75-1.75-.79-1.75-1.75-1.75z" fill="#000"/><path d="M17 22.75H7c-4.41 0-5.75-1.34-5.75-5.75v-2c0-4.41 1.34-5.75 5.75-5.75h10c4.41 0 5.75 1.34 5.75 5.75v2c0 4.41-1.34 5.75-5.75 5.75zm-10-12c-3.58 0-4.25.68-4.25 4.25v2c0 3.57.67 4.25 4.25 4.25h10c3.58 0 4.25-.68 4.25-4.25v-2c0-3.57-.67-4.25-4.25-4.25H7z" fill="#000"/></svg><svg fill="none" viewBox="0 0 24 24" id="menu" xmlns="http://www.w3.org/2000/svg"><path d="M21 7.75H3c-.41 0-.75-.34-.75-.75s.34-.75.75-.75h18c.41 0 .75.34.75.75s-.34.75-.75.75zM21 12.75H3c-.41 0-.75-.34-.75-.75s.34-.75.75-.75h18c.41 0 .75.34.75.75s-.34.75-.75.75zM21 17.75H3c-.41 0-.75-.34-.75-.75s.34-.75.75-.75h18c.41 0 .75.34.75.75s-.34.75-.75.75z" fill="#000"/></svg><svg fill="none" viewBox="0 0 24 24" id="message-favorite" xmlns="http://www.w3.org/2000/svg"><path d="M12 22.81c-.69 0-1.34-.35-1.8-.96l-1.5-2a.377.377 0 00-.21-.1H8c-4.17 0-6.75-1.13-6.75-6.75V8c0-4.42 2.33-6.75 6.75-6.75h4c.41 0 .75.34.75.75s-.34.75-.75.75H8C4.42 2.75 2.75 4.42 2.75 8v5c0 4.52 1.55 5.25 5.25 5.25h.5c.51 0 1.09.29 1.4.7l1.5 2c.35.46.85.46 1.2 0l1.5-2c.33-.44.85-.7 1.4-.7h.5c3.58 0 5.25-1.67 5.25-5.25V8c0-.41.34-.75.75-.75s.75.34.75.75v5c0 4.42-2.33 6.75-6.75 6.75h-.5c-.08 0-.15.04-.2.1l-1.5 2c-.46.61-1.11.96-1.8.96z" fill="#000"/><path d="M12 12c-.56 0-1-.45-1-1s.45-1 1-1 1 .45 1 1-.44 1-1 1zM16 12c-.56 0-1-.45-1-1s.45-1 1-1 1 .45 1 1-.44 1-1 1zM8 12c-.56 0-1-.45-1-1s.45-1 1-1 1 .45 1 1-.44 1-1 1zM18 7.75c-.86 0-2.89-1.02-3.51-2.89-.25-.74-.19-1.59.16-2.26.31-.6.83-1.04 1.47-1.24.65-.2 1.34-.11 1.88.22.54-.33 1.23-.42 1.89-.22.64.2 1.16.64 1.47 1.24.35.67.41 1.52.16 2.26-.63 1.9-2.75 2.89-3.52 2.89zm-2.09-3.37c.42 1.26 1.85 1.84 2.11 1.87.29-.03 1.69-.68 2.08-1.86.12-.36.09-.79-.07-1.1a.939.939 0 00-.58-.49c-.28-.1-.66-.05-.83.2-.14.2-.36.32-.6.33-.24 0-.47-.11-.62-.3-.21-.27-.58-.31-.85-.23-.26.08-.45.24-.58.49-.15.31-.18.73-.06 1.09z" fill="#000"/></svg><svg fill="none" viewBox="0 0 24 24" id="message-question" xmlns="http://www.w3.org/2000/svg"><path d="M8 22.32c-.28 0-.57-.07-.83-.21-.57-.3-.92-.9-.92-1.54v-1.42c-3.02-.31-5-2.53-5-5.71v-6C1.25 4 3.56 1.69 7 1.69h10c3.44 0 5.75 2.31 5.75 5.75v6c0 3.44-2.31 5.75-5.75 5.75h-3.77l-4.26 2.84c-.29.19-.63.29-.97.29zM7 3.18c-2.58 0-4.25 1.67-4.25 4.25v6c0 2.58 1.67 4.25 4.25 4.25.41 0 .75.34.75.75v2.13c0 .13.08.19.13.22s.15.06.26-.01l4.45-2.96c.12-.08.27-.13.42-.13h4c2.58 0 4.25-1.67 4.25-4.25v-6c0-2.58-1.67-4.25-4.25-4.25H7z" fill="#000"/><path d="M12 12.11c-.41 0-.75-.34-.75-.75v-.21c0-1.16.85-1.73 1.17-1.95.37-.25.49-.42.49-.68 0-.5-.41-.91-.91-.91s-.91.41-.91.91c0 .41-.34.75-.75.75s-.75-.34-.75-.75c0-1.33 1.08-2.41 2.41-2.41s2.41 1.08 2.41 2.41c0 1.14-.84 1.71-1.15 1.92-.39.26-.51.43-.51.71v.21c0 .42-.34.75-.75.75zM12 14.6a.749.749 0 11-.002-1.498A.749.749 0 0112 14.6z" fill="#000"/></svg><svg fill="none" viewBox="0 0 24 24" id="mini-arrow" xmlns="http://www.w3.org/2000/svg"><path d="M16.21 16H7.79a1.76 1.76 0 01-1.59-1 2.1 2.1 0 01.26-2.21l4.21-5.1a1.76 1.76 0 012.66 0l4.21 5.1A2.099 2.099 0 0117.8 15a1.76 1.76 0 01-1.59 1z" fill="#000"/></svg><svg fill="none" viewBox="0 0 24 24" id="note" xmlns="http://www.w3.org/2000/svg"><path d="M12 14.75H7c-.41 0-.75-.34-.75-.75s.34-.75.75-.75h5c.41 0 .75.34.75.75s-.34.75-.75.75zM7 6.71c-.19 0-.38-.07-.53-.22L2.72 2.74a.754.754 0 010-1.06c.29-.29.77-.29 1.06 0l3.75 3.75c.29.29.29.77 0 1.06-.15.14-.34.22-.53.22z" fill="#000"/><path d="M3.21 6.75c-.19 0-.38-.07-.53-.22a.754.754 0 010-1.06l3.75-3.75c.29-.29.77-.29 1.06 0 .29.29.29.77 0 1.06L3.74 6.53c-.14.15-.34.22-.53.22zM15 10.75H7c-.41 0-.75-.34-.75-.75s.34-.75.75-.75h8c.41 0 .75.34.75.75s-.34.75-.75.75z" fill="#000"/><path d="M21 16.75c-.41 0-.75-.34-.75-.75V7.99c0-4.23-1.44-5.09-4.29-5.24H10c-.41 0-.75-.34-.75-.75s.34-.75.75-.75h6c4.1.22 5.75 2.17 5.75 6.74V16c0 .41-.34.75-.75.75zM15 22.75H9c-5.62 0-6.75-2.59-6.75-6.77V9.01c0-.41.34-.75.75-.75s.75.34.75.75v6.97c0 3.72.73 5.27 5.25 5.27h6c.41 0 .75.34.75.75s-.34.75-.75.75z" fill="#000"/><path d="M15 22.75a.753.753 0 01-.75-.75v-3c0-2.42 1.33-3.75 3.75-3.75h3c.3 0 .58.18.69.46.11.28.05.6-.16.82l-6 6c-.14.14-.34.22-.53.22zm3-6c-1.58 0-2.25.67-2.25 2.25v1.19l3.44-3.44H18z" fill="#000"/></svg><svg fill="none" viewBox="0 0 24 24" id="plus" xmlns="http://www.w3.org/2000/svg"><path d="M18 12.75H6c-.41 0-.75-.34-.75-.75s.34-.75.75-.75h12c.41 0 .75.34.75.75s-.34.75-.75.75z" fill="#000"/><path d="M12 18.75c-.41 0-.75-.34-.75-.75V6c0-.41.34-.75.75-.75s.75.34.75.75v12c0 .41-.34.75-.75.75z" fill="#000"/></svg><svg fill="none" viewBox="0 0 24 24" id="receipt" xmlns="http://www.w3.org/2000/svg"><path d="M12 22.75c-.78 0-1.54-.4-2.06-1.1L8.93 20.3c-.21-.28-.49-.44-.79-.46-.3-.01-.6.12-.84.37l-.57-.51.55.51c-1.44 1.54-2.55 1.42-3.08 1.21-.54-.21-1.45-.9-1.45-3.12V7.04c0-4.44 1.28-5.79 5.47-5.79h7.56c4.19 0 5.47 1.35 5.47 5.79V18.3c0 2.21-.91 2.9-1.45 3.12-.53.21-1.63.33-3.08-1.21-.24-.26-.54-.4-.85-.37-.3.02-.59.18-.8.46l-1.01 1.35c-.52.7-1.28 1.1-2.06 1.1zm-3.92-4.42h.13c.74.04 1.44.43 1.91 1.06l1.01 1.35c.49.65 1.24.65 1.73 0l1.01-1.35c.48-.63 1.17-1.02 1.92-1.06.74-.04 1.48.27 2.02.85.76.81 1.25.91 1.43.84.24-.1.5-.68.5-1.72V7.04c0-3.61-.63-4.29-3.97-4.29H8.22c-3.34 0-3.97.68-3.97 4.29V18.3c0 1.05.26 1.63.5 1.72.17.07.67-.03 1.43-.84.54-.55 1.21-.85 1.9-.85z" fill="#000"/><path d="M16.23 11.75h-5.5c-.41 0-.75-.34-.75-.75s.34-.75.75-.75h5.5c.41 0 .75.34.75.75s-.34.75-.75.75zM16.23 7.75h-5.5c-.41 0-.75-.34-.75-.75s.34-.75.75-.75h5.5c.41 0 .75.34.75.75s-.34.75-.75.75zM7.78 8c-.55 0-1-.45-1-1s.45-1 1-1 1 .45 1 1-.45 1-1 1zM7.78 12c-.55 0-1-.45-1-1s.45-1 1-1 1 .45 1 1-.45 1-1 1z" fill="#000"/></svg><svg fill="none" viewBox="0 0 24 24" id="recieved" xmlns="http://www.w3.org/2000/svg"><path d="M14.44 7.25c-.19 0-.38-.07-.53-.22L11.88 5 9.85 7.03c-.29.29-.77.29-1.06 0a.754.754 0 010-1.06l2.56-2.56c.29-.29.77-.29 1.06 0l2.56 2.56c.29.29.29.77 0 1.06-.15.15-.34.22-.53.22z" fill="#000"/><path d="M11.88 14.93c-.41 0-.75-.34-.75-.75V4.01c0-.41.34-.75.75-.75s.75.34.75.75v10.17c0 .42-.34.75-.75.75z" fill="#000"/><path d="M12 20.75c-5.15 0-8.75-3.6-8.75-8.75 0-.41.34-.75.75-.75s.75.34.75.75c0 4.27 2.98 7.25 7.25 7.25s7.25-2.98 7.25-7.25c0-.41.34-.75.75-.75s.75.34.75.75c0 5.15-3.6 8.75-8.75 8.75z" fill="#000"/></svg><svg fill="none" viewBox="0 0 20 20" id="reddit" xmlns="http://www.w3.org/2000/svg"><path fill-rule="evenodd" clip-rule="evenodd" d="M16.633 1.458c-.727 0-1.363.4-1.698.99l-3-.616a.625.625 0 00-.7.369 290.9 290.9 0 00-1.286 3.07c-.188.46-.361.889-.496 1.234-1.599.077-3.077.492-4.298 1.153a2.555 2.555 0 10-3.18 3.809c-.074.32-.11.65-.11.989 0 1.7.958 3.202 2.433 4.262C5.773 17.777 7.791 18.42 10 18.42c2.21 0 4.226-.643 5.702-1.703 1.475-1.06 2.434-2.561 2.434-4.262a4.42 4.42 0 00-.11-.989 2.554 2.554 0 10-3.181-3.808c-1.158-.629-2.55-1.034-4.053-1.14l.314-.773c.349-.851.756-1.821 1.079-2.586l2.515.517a1.953 1.953 0 101.933-2.219zm-.701 1.952a.702.702 0 111.404 0 .702.702 0 01-1.404 0zm1.652 6.875c-.392-.736-.971-1.394-1.686-1.945a1.304 1.304 0 111.686 1.945zM4.103 8.34a1.305 1.305 0 10-1.686 1.945c.391-.736.97-1.394 1.686-1.945zm8.845 4.117a1.206 1.206 0 100-2.41 1.206 1.206 0 000 2.409M8.254 11.25a1.206 1.206 0 11-2.412 0 1.206 1.206 0 012.412 0zm-.879 2.607a.625.625 0 00-.667 1.057l.288.182a5.625 5.625 0 006.002 0l.287-.181a.624.624 0 10-.667-1.058l-.287.181a4.375 4.375 0 01-4.668 0l-.288-.18z" fill="#9A9A9A"/></svg><svg fill="none" viewBox="0 0 24 24" id="search" xmlns="http://www.w3.org/2000/svg"><path d="M11.5 21.75c-5.65 0-10.25-4.6-10.25-10.25S5.85 1.25 11.5 1.25s10.25 4.6 10.25 10.25-4.6 10.25-10.25 10.25zm0-19c-4.83 0-8.75 3.93-8.75 8.75s3.92 8.75 8.75 8.75 8.75-3.93 8.75-8.75-3.92-8.75-8.75-8.75zM22 22.75c-.19 0-.38-.07-.53-.22l-2-2a.754.754 0 010-1.06c.29-.29.77-.29 1.06 0l2 2c.29.29.29.77 0 1.06-.15.15-.34.22-.53.22z" fill="#000"/></svg><svg fill="none" viewBox="0 0 24 24" id="sent" xmlns="http://www.w3.org/2000/svg"><path d="M11.88 14.99c-.19 0-.38-.07-.53-.22l-2.56-2.56a.754.754 0 010-1.06c.29-.29.77-.29 1.06 0l2.03 2.03 2.03-2.03c.29-.29.77-.29 1.06 0 .29.29.29.77 0 1.06l-2.56 2.56c-.15.15-.34.22-.53.22z" fill="#000"/><path d="M11.88 14.92c-.41 0-.75-.34-.75-.75V4c0-.41.34-.75.75-.75s.75.34.75.75v10.17c0 .41-.34.75-.75.75z" fill="#000"/><path d="M12 20.93c-5.15 0-8.75-3.6-8.75-8.75 0-.41.34-.75.75-.75s.75.34.75.75c0 4.27 2.98 7.25 7.25 7.25s7.25-2.98 7.25-7.25c0-.41.34-.75.75-.75s.75.34.75.75c0 5.15-3.6 8.75-8.75 8.75z" fill="#000"/></svg><svg fill="none" viewBox="0 0 24 24" id="setting" xmlns="http://www.w3.org/2000/svg"><path d="M12 15.75c-2.07 0-3.75-1.68-3.75-3.75 0-2.07 1.68-3.75 3.75-3.75 2.07 0 3.75 1.68 3.75 3.75 0 2.07-1.68 3.75-3.75 3.75zm0-6c-1.24 0-2.25 1.01-2.25 2.25s1.01 2.25 2.25 2.25 2.25-1.01 2.25-2.25S13.24 9.75 12 9.75z" fill="#000"/><path d="M15.21 22.19c-.21 0-.42-.03-.63-.08-.62-.17-1.14-.56-1.47-1.11l-.12-.2c-.59-1.02-1.4-1.02-1.99 0l-.11.19c-.33.56-.85.96-1.47 1.12-.63.17-1.28.08-1.83-.25l-1.72-.99a2.65 2.65 0 01-.98-3.62c.29-.51.37-.97.2-1.26-.17-.29-.6-.46-1.19-.46-1.46 0-2.65-1.19-2.65-2.65v-1.76c0-1.46 1.19-2.65 2.65-2.65.59 0 1.02-.17 1.19-.46.17-.29.1-.75-.2-1.26-.35-.61-.44-1.33-.26-2.01.18-.69.62-1.26 1.24-1.61l1.73-.99c1.13-.67 2.62-.28 3.3.87l.12.2c.59 1.02 1.4 1.02 1.99 0l.11-.19c.68-1.16 2.17-1.55 3.31-.87l1.72.99a2.65 2.65 0 01.98 3.62c-.29.51-.37.97-.2 1.26.17.29.6.46 1.19.46 1.46 0 2.65 1.19 2.65 2.65v1.76c0 1.46-1.19 2.65-2.65 2.65-.59 0-1.02.17-1.19.46-.17.29-.1.75.2 1.26.35.61.45 1.33.26 2.01a2.58 2.58 0 01-1.24 1.61l-1.73.99c-.38.21-.79.32-1.21.32zM12 18.49c.89 0 1.72.56 2.29 1.55l.11.19c.12.21.32.36.56.42.24.06.48.03.68-.09l1.73-1a1.157 1.157 0 00.43-1.57c-.57-.98-.64-1.99-.2-2.76.44-.77 1.35-1.21 2.49-1.21.64 0 1.15-.51 1.15-1.15v-1.76c0-.63-.51-1.15-1.15-1.15-1.14 0-2.05-.44-2.49-1.21-.44-.77-.37-1.78.2-2.76.15-.26.19-.57.11-.87-.08-.3-.27-.54-.53-.7l-1.73-.99a.92.92 0 00-1.26.33l-.11.19c-.57.99-1.4 1.55-2.29 1.55-.89 0-1.72-.56-2.29-1.55l-.11-.2a.918.918 0 00-1.24-.32l-1.73 1A1.157 1.157 0 006.19 6c.57.98.64 1.99.2 2.76-.44.77-1.35 1.21-2.49 1.21-.64 0-1.15.51-1.15 1.15v1.76c0 .63.51 1.15 1.15 1.15 1.14 0 2.05.44 2.49 1.21.44.77.37 1.78-.2 2.76-.15.26-.19.57-.11.87.08.3.27.54.53.7l1.73.99c.21.13.46.16.69.1.24-.06.44-.22.57-.43l.11-.19c.57-.98 1.4-1.55 2.29-1.55z" fill="#000"/></svg><svg fill="none" viewBox="0 0 24 24" id="snow" xmlns="http://www.w3.org/2000/svg"><path d="M21 14.25l-.831-.659c-.946-.75-1.419-1.125-1.419-1.591 0-.466.473-.841 1.419-1.591L21 9.75m-18 0l.831.659c.946.75 1.419 1.125 1.419 1.591 0 .466-.473.841-1.419 1.591L3 14.25M14.572 21l.156-1.059c.178-1.205.267-1.807.674-2.042.407-.236.972-.011 2.104.437l.994.394M9.428 3l-.156 1.059c-.178 1.205-.267 1.807-.674 2.042-.407.236-.972.011-2.104-.437L5.5 5.27M5 18.732l1.07-.395c1.218-.448 1.827-.672 2.265-.438.438.234.533.838.724 2.042L9.227 21M19 5.268l-1.07.394c-1.218.45-1.828.673-2.265.439-.437-.234-.533-.838-.724-2.042L14.773 3M19 12H5m10.5 6l-7-12m7 0l-7 12" stroke="#000" stroke-width="1.5" stroke-linecap="round" stroke-linejoin="round"/></svg><svg fill="none" viewBox="0 0 24 24" id="sum" xmlns="http://www.w3.org/2000/svg"><path d="M3.81 3.456A.75.75 0 014.5 3h14.25a.75.75 0 110 1.5H6.256l6.111 6.38a.75.75 0 01.036.997L6.094 19.5H18.75a.75.75 0 110 1.5H4.5a.75.75 0 01-.578-1.229l6.9-8.337L3.958 4.27a.75.75 0 01-.148-.813z" fill="#000"/></svg><svg fill="none" viewBox="0 0 24 24" id="telegram" xmlns="http://www.w3.org/2000/svg"><path fill-rule="evenodd" clip-rule="evenodd" d="M19.777 4.43a1.5 1.5 0 012.062 1.626l-2.268 13.757c-.22 1.327-1.676 2.088-2.893 1.427-1.018-.553-2.53-1.405-3.89-2.294-.68-.445-2.763-1.87-2.507-2.884.22-.867 3.72-4.125 5.72-6.062.785-.761.427-1.2-.5-.5-2.302 1.738-5.998 4.381-7.22 5.125-1.078.656-1.64.768-2.312.656-1.226-.204-2.363-.52-3.291-.905-1.254-.52-1.193-2.244-.001-2.746l17.1-7.2z" fill="#000"/></svg><svg fill="none" viewBox="0 0 24 24" id="timer" xmlns="http://www.w3.org/2000/svg"><path d="M15.24 22.75H8.76c-1.89 0-3.27-.79-3.8-2.15-.55-1.42-.04-3.18 1.28-4.37L10.88 12 6.24 7.77C4.92 6.58 4.41 4.82 4.96 3.4c.53-1.37 1.91-2.15 3.8-2.15h6.48c1.89 0 3.27.79 3.8 2.15.55 1.42.04 3.18-1.28 4.37L13.12 12l4.65 4.23c1.31 1.19 1.83 2.95 1.28 4.37-.54 1.36-1.92 2.15-3.81 2.15zM12 13.01l-4.75 4.32c-.84.77-1.21 1.89-.89 2.72.3.77 1.15 1.2 2.4 1.2h6.48c1.25 0 2.1-.42 2.4-1.2.32-.83-.04-1.95-.89-2.72L12 13.01zM8.76 2.75c-1.25 0-2.1.42-2.4 1.2-.32.83.04 1.95.89 2.72L12 10.99l4.75-4.32c.84-.77 1.21-1.89.89-2.72-.3-.77-1.15-1.2-2.4-1.2H8.76z" fill="#000"/></svg><svg fill="none" viewBox="0 0 24 24" id="transactions" xmlns="http://www.w3.org/2000/svg"><path d="M15.49 20.76c-.19 0-.38-.07-.53-.22a.754.754 0 010-1.06l5.01-5.01c.29-.29.77-.29 1.06 0 .29.29.29.77 0 1.06l-5.01 5.01c-.15.14-.34.22-.53.22z" fill="#000"/><path d="M20.5 15.74h-17c-.41 0-.75-.34-.75-.75s.34-.75.75-.75h17c.41 0 .75.34.75.75s-.34.75-.75.75zM3.5 9.76c-.19 0-.38-.07-.53-.22a.754.754 0 010-1.06l5.01-5.01c.29-.29.77-.29 1.06 0 .29.29.29.77 0 1.06L4.03 9.54c-.14.14-.34.22-.53.22z" fill="#000"/><path d="M20.5 9.76h-17c-.41 0-.75-.34-.75-.75s.34-.75.75-.75h17c.41 0 .75.34.75.75s-.34.75-.75.75z" fill="#000"/></svg><svg fill="none" viewBox="0 0 24 24" id="translate" xmlns="http://www.w3.org/2000/svg"><path d="M14.79 19.42c-.11 0-.23-.03-.33-.08a.763.763 0 01-.34-1.01l2.14-4.27a.76.76 0 01.67-.41c.28 0 .54.16.67.42l2.14 4.27c.19.37.04.82-.34 1.01-.37.19-.82.04-1.01-.34l-1.46-2.93-1.46 2.93a.78.78 0 01-.68.41z" fill="#000"/><path d="M18.68 18.66h-3.52c-.41 0-.75-.34-.75-.75s.34-.75.75-.75h3.52a.749.749 0 110 1.5z" fill="#000"/><path d="M16.92 22.75a5.83 5.83 0 110-11.66 5.83 5.83 0 010 11.66zm0-10.15c-2.39 0-4.33 1.94-4.33 4.33s1.94 4.33 4.33 4.33c2.38 0 4.33-1.94 4.33-4.33s-1.94-4.33-4.33-4.33zM4.86 12.7c-1.11 0-1.99-.31-2.61-.91-.66-.64-1-1.61-1-2.86V5.01c0-2.43 1.34-3.77 3.77-3.77h3.92c1.25 0 2.21.33 2.86 1 .63.65.94 1.59.91 2.79v3.9c.03 1.22-.28 2.18-.93 2.83-.65.65-1.61.95-2.85.93h-3.9c-.07.01-.12.01-.17.01zm.16-9.95c-1.61 0-2.27.66-2.27 2.27v3.92c0 .83.18 1.43.54 1.78.35.34.91.49 1.7.48h3.94c.84.02 1.42-.15 1.77-.5.35-.35.51-.94.49-1.75V5.01c.02-.8-.14-1.37-.48-1.72-.35-.36-.95-.54-1.78-.54H5.02z" fill="#000"/><path d="M9 6.6H4.94c-.41 0-.75-.34-.75-.75s.34-.75.75-.75H9a.749.749 0 110 1.5z" fill="#000"/><path d="M6.98 6.6c-.41 0-.75-.34-.75-.75v-.68c0-.41.34-.75.75-.75s.75.34.75.75v.68c0 .41-.34.75-.75.75z" fill="#000"/><path d="M4.94 9.76c-.41 0-.75-.34-.75-.75s.34-.75.75-.75c1.27 0 2.3-1.08 2.3-2.42 0-.41.34-.75.75-.75s.75.34.75.75c0 2.16-1.7 3.92-3.8 3.92z" fill="#000"/><path d="M9.01 9.76c-.93 0-1.82-.47-2.45-1.3a.75.75 0 011.2-.9c.34.46.79.71 1.25.71.41 0 .75.34.75.75s-.34.74-.75.74zM9 22.75c-4.27 0-7.75-3.48-7.75-7.75 0-.41.34-.75.75-.75s.75.34.75.75c0 2.96 2.06 5.44 4.83 6.09l-.27-.45a.751.751 0 111.29-.77l1.05 1.75c.14.23.14.52.01.75-.14.23-.39.38-.66.38zM22 9.75c-.41 0-.75-.34-.75-.75 0-2.96-2.06-5.44-4.83-6.09l.27.45a.75.75 0 11-1.29.77l-1.05-1.75a.745.745 0 01-.01-.75c.13-.24.38-.38.65-.38 4.27 0 7.75 3.48 7.75 7.75a.74.74 0 01-.74.75z" fill="#000"/></svg><svg fill="none" viewBox="0 0 24 24" id="trash" xmlns="http://www.w3.org/2000/svg"><path d="M21 6.73h-.08c-5.29-.53-10.57-.73-15.8-.2l-2.04.2a.755.755 0 01-.83-.68c-.04-.42.26-.78.67-.82l2.04-.2c5.32-.54 10.71-.33 16.11.2.41.04.71.41.67.82a.74.74 0 01-.74.68z" fill="#000"/><path d="M8.5 5.72c-.04 0-.08 0-.13-.01a.753.753 0 01-.61-.86l.22-1.31c.16-.96.38-2.29 2.71-2.29h2.62c2.34 0 2.56 1.38 2.71 2.3l.22 1.3c.07.41-.21.8-.61.86-.41.07-.8-.21-.86-.61l-.22-1.3c-.14-.87-.17-1.04-1.23-1.04H10.7c-1.06 0-1.08.14-1.23 1.03l-.23 1.3a.75.75 0 01-.74.63zM15.21 22.75H8.79c-3.49 0-3.63-1.93-3.74-3.49L4.4 9.19c-.03-.41.29-.77.7-.8.42-.02.77.29.8.7l.65 10.07c.11 1.52.15 2.09 2.24 2.09h6.42c2.1 0 2.14-.57 2.24-2.09l.65-10.07c.03-.41.39-.72.8-.7.41.03.73.38.7.8l-.65 10.07c-.11 1.56-.25 3.49-3.74 3.49z" fill="#000"/><path d="M13.66 17.25h-3.33c-.41 0-.75-.34-.75-.75s.34-.75.75-.75h3.33c.41 0 .75.34.75.75s-.34.75-.75.75zM14.5 13.25h-5c-.41 0-.75-.34-.75-.75s.34-.75.75-.75h5c.41 0 .75.34.75.75s-.34.75-.75.75z" fill="#000"/></svg><svg fill="none" viewBox="0 0 24 24" id="user-tick" xmlns="http://www.w3.org/2000/svg"><path d="M12 12.75c-3.17 0-5.75-2.58-5.75-5.75S8.83 1.25 12 1.25 17.75 3.83 17.75 7s-2.58 5.75-5.75 5.75zm0-10A4.26 4.26 0 007.75 7 4.26 4.26 0 0012 11.25 4.26 4.26 0 0016.25 7 4.26 4.26 0 0012 2.75zM3.41 22.75c-.41 0-.75-.34-.75-.75 0-4.27 4.19-7.75 9.34-7.75 1.01 0 2 .13 2.96.4.4.11.63.52.52.92-.11.4-.52.63-.92.52-.82-.23-1.68-.34-2.56-.34-4.32 0-7.84 2.8-7.84 6.25 0 .41-.34.75-.75.75z" fill="#000"/><path d="M18 22.75c-1.66 0-3.22-.88-4.06-2.31-.45-.72-.69-1.57-.69-2.44 0-1.46.65-2.81 1.78-3.71.84-.67 1.9-1.04 2.97-1.04 2.62 0 4.75 2.13 4.75 4.75 0 .87-.24 1.72-.69 2.45-.25.42-.57.8-.95 1.12-.83.76-1.94 1.18-3.11 1.18zm0-8c-.74 0-1.44.25-2.03.72a3.224 3.224 0 00-.75 4.2c.58.98 1.65 1.58 2.78 1.58.79 0 1.55-.29 2.13-.81.26-.22.48-.48.64-.76.32-.51.48-1.09.48-1.68 0-1.79-1.46-3.25-3.25-3.25z" fill="#000"/><path d="M17.43 19.74c-.19 0-.38-.07-.53-.22l-.99-.99a.755.755 0 010-1.06c.29-.29.77-.29 1.06 0l.48.48 1.6-1.48c.3-.28.78-.26 1.06.04s.26.78-.04 1.06l-2.13 1.97c-.15.13-.33.2-.51.2z" fill="#000"/></svg><svg fill="none" viewBox="0 0 20 20" id="vk" xmlns="http://www.w3.org/2000/svg"><g clip-path="url(#bsclip0_243_1814)"><path fill-rule="evenodd" clip-rule="evenodd" d="M17.802 12.298s1.617 1.597 2.017 2.336c.008.01.015.022.018.035.163.273.204.488.123.645-.135.261-.592.392-.747.403h-2.858c-.199 0-.613-.052-1.117-.4-.385-.269-.768-.712-1.139-1.145-.554-.643-1.033-1.201-1.518-1.201a.602.602 0 00-.18.03c-.367.116-.833.639-.833 2.032 0 .436-.344.684-.585.684H9.674c-.446 0-2.768-.156-4.827-2.327C2.324 10.732.058 5.4.037 5.353-.106 5.008.19 4.82.51 4.82h2.886c.387 0 .513.234.601.444.102.241.48 1.205 1.1 2.288 1.004 1.762 1.621 2.479 2.114 2.479a.53.53 0 00.264-.07c.644-.354.524-2.654.494-3.128 0-.092 0-1.027-.33-1.479-.237-.324-.639-.45-.882-.496.065-.094.203-.238.38-.323.441-.22 1.238-.252 2.03-.252h.438c.858.012 1.08.067 1.392.146.628.15.64.557.585 1.943-.016.396-.033.842-.033 1.367 0 .112-.005.237-.005.364-.019.711-.044 1.512.458 1.841a.4.4 0 00.217.062c.174 0 .695 0 2.108-2.425.62-1.071 1.1-2.334 1.133-2.429.028-.053.112-.202.214-.262a.5.5 0 01.236-.056h3.395c.37 0 .621.056.67.196.082.227-.016.92-1.566 3.016-.26.349-.49.651-.69.915-1.406 1.844-1.406 1.937.082 3.337z" fill="#9A9A9A"/></g><defs><clipPath id="bsclip0_243_1814"><path fill="#fff" d="M0 0h20v20H0z"/></clipPath></defs></svg><svg fill="none" viewBox="0 0 24 24" id="wallet" xmlns="http://www.w3.org/2000/svg"><path d="M17 22.75H7c-3.44 0-5.75-2.31-5.75-5.75v-5c0-3.08 1.9-5.31 4.85-5.68.28-.04.59-.07.9-.07h10c.24 0 .55.01.87.06 2.95.34 4.88 2.58 4.88 5.69v5c0 3.44-2.31 5.75-5.75 5.75zm-10-15c-.24 0-.47.02-.7.05-2.2.28-3.55 1.88-3.55 4.2v5c0 2.58 1.67 4.25 4.25 4.25h10c2.58 0 4.25-1.67 4.25-4.25v-5c0-2.34-1.37-3.95-3.59-4.21-.24-.04-.45-.04-.66-.04H7z" fill="#000"/><path d="M6.19 7.81c-.24 0-.46-.11-.61-.31a.735.735 0 01-.06-.78c.17-.34.41-.67.72-.97l3.25-3.26a4.28 4.28 0 016.02 0l1.75 1.77c.74.73 1.19 1.71 1.24 2.75a.752.752 0 01-.87.78c-.2-.03-.41-.04-.63-.04H7c-.24 0-.47.02-.7.05-.03.01-.07.01-.11.01zm1.67-1.56h8.96c-.13-.34-.34-.65-.62-.93l-1.76-1.78c-1.07-1.06-2.82-1.06-3.9 0L7.86 6.25zM22 17.25h-3c-1.52 0-2.75-1.23-2.75-2.75s1.23-2.75 2.75-2.75h3c.41 0 .75.34.75.75s-.34.75-.75.75h-3a1.25 1.25 0 000 2.5h3c.41 0 .75.34.75.75s-.34.75-.75.75z" fill="#000"/></svg><svg fill="none" viewBox="0 0 24 24" id="wallet-check" xmlns="http://www.w3.org/2000/svg"><path d="M5 23.75c-1.66 0-3.22-.88-4.06-2.31C.49 20.72.25 19.87.25 19c0-2.62 2.13-4.75 4.75-4.75S9.75 16.38 9.75 19c0 .87-.24 1.72-.69 2.45-.84 1.42-2.4 2.3-4.06 2.3zm0-8c-1.79 0-3.25 1.46-3.25 3.25 0 .59.16 1.17.47 1.67.59 1 1.63 1.58 2.78 1.58s2.19-.59 2.78-1.57c.31-.51.47-1.08.47-1.68 0-1.79-1.46-3.25-3.25-3.25z" fill="#000"/><path d="M4.43 20.74c-.19 0-.38-.07-.53-.22l-.99-.99a.755.755 0 010-1.06c.29-.29.77-.29 1.06 0l.48.48 1.6-1.48c.3-.28.78-.26 1.06.04s.26.78-.04 1.06l-2.13 1.97c-.15.13-.33.2-.51.2zM6.19 7.81c-.24 0-.46-.11-.61-.31a.735.735 0 01-.06-.78c.17-.34.41-.67.72-.97l3.25-3.26a4.28 4.28 0 016.02 0l1.75 1.78C18 5 18.45 5.98 18.5 7.02a.752.752 0 01-.87.78c-.2-.03-.41-.04-.63-.04H7c-.24 0-.47.02-.7.05h-.11zm1.67-1.56h8.96c-.13-.34-.34-.65-.62-.93l-1.76-1.78c-1.07-1.06-2.82-1.06-3.9 0L7.86 6.25z" fill="#000"/><path d="M17 22.75H7.63c-.32 0-.6-.2-.71-.49-.11-.3-.02-.63.22-.83.24-.2.46-.46.62-.74.32-.51.48-1.09.48-1.68 0-1.79-1.46-3.25-3.25-3.25-.93 0-1.82.4-2.44 1.11-.21.23-.54.32-.83.21a.757.757 0 01-.49-.7V12c0-3.08 1.9-5.31 4.85-5.68.27-.04.58-.07.9-.07h10c.24 0 .55.01.87.06 2.95.34 4.88 2.58 4.88 5.69v5c.02 3.44-2.29 5.75-5.73 5.75zm-7.82-1.5H17c2.58 0 4.25-1.67 4.25-4.25v-5c0-2.34-1.37-3.95-3.59-4.21-.24-.04-.45-.04-.66-.04H7c-.24 0-.47.02-.7.05-2.2.28-3.55 1.88-3.55 4.2v2.82c.68-.37 1.46-.57 2.25-.57 2.62 0 4.75 2.13 4.75 4.75 0 .79-.2 1.57-.57 2.25z" fill="#000"/><path d="M22 17.25h-3c-1.52 0-2.75-1.23-2.75-2.75s1.23-2.75 2.75-2.75h3c.41 0 .75.34.75.75s-.34.75-.75.75h-3a1.25 1.25 0 000 2.5h3c.41 0 .75.34.75.75s-.34.75-.75.75z" fill="#000"/></svg><svg fill="none" viewBox="0 0 24 24" id="xtwitter" xmlns="http://www.w3.org/2000/svg"><path d="M14.011 10.715l6.032-7.476H17.35l-4.604 5.71-4.084-5.71H2.802l6.838 9.558-6.426 7.963h2.693l4.997-6.193 4.434 6.194H21.2l-7.188-10.046zm-2.085 2.584L10.66 11.53 5.745 4.665H7.77l3.967 5.534L13 11.969l5.272 7.366h-2.024L11.926 13.3z" fill="#9A9A9A"/></svg><svg fill="none" viewBox="0 0 24 24" id="youtube" xmlns="http://www.w3.org/2000/svg"><path fill-rule="evenodd" clip-rule="evenodd" d="M12 3.858c.87 0 1.762.022 2.627.059l1.022.049.978.058.916.062.837.065a3.868 3.868 0 013.556 3.484l.04.432.077.926c.071.96.124 2.006.124 3.007 0 1-.053 2.046-.124 3.006l-.076.926-.041.433a3.867 3.867 0 01-3.557 3.484l-.835.064-.916.063-.979.058-1.021.049c-.876.038-1.752.057-2.628.059a63.083 63.083 0 01-2.628-.06l-1.022-.048-.978-.058-.916-.063-.837-.064a3.867 3.867 0 01-3.556-3.484l-.04-.433-.077-.926c-.077-1-.119-2.003-.124-3.006 0-1 .053-2.047.124-3.007l.077-.926.04-.432A3.867 3.867 0 015.618 4.15l.836-.065.916-.062.979-.058 1.022-.05A63.098 63.098 0 0112 3.859zM9.964 9.532v4.936c0 .47.51.763.916.53l4.275-2.469a.611.611 0 000-1.058L10.88 9.004a.61.61 0 00-.916.529v-.001z" fill="#9A9A9A"/></svg></svg>