<svg width="100" height="100" viewBox="0 0 100 100" fill="none" xmlns="http://www.w3.org/2000/svg"><path d="M48.768 30.291c-3.614 0-9.207-4.108-15.098-3.96-7.771.1-14.9 4.505-18.909 11.484-8.068 14.009-2.079 34.7 5.792 46.085 3.86 5.544 8.415 11.78 14.454 11.583 5.791-.248 7.97-3.762 14.998-3.762 6.98 0 8.96 3.762 15.098 3.613 6.237-.099 10.197-5.643 14.008-11.236 4.406-6.435 6.237-12.672 6.336-13.019-.148-.05-12.127-4.653-12.276-18.513-.099-11.583 9.455-17.127 9.9-17.374-5.445-7.97-13.81-8.86-16.73-9.059-7.624-.594-14.01 4.158-17.573 4.158zm12.87-11.682c3.217-3.86 5.346-9.256 4.752-14.602-4.604.198-10.148 3.069-13.464 6.93-2.97 3.415-5.544 8.91-4.851 14.157 5.098.396 10.345-2.624 13.563-6.485z" fill="#1C1C1C"/></svg>