<svg width="100" height="100" viewBox="0 0 100 100" fill="none" xmlns="http://www.w3.org/2000/svg"><path d="M13.253 31.479A41.25 41.25 0 0150.114 8.75c11.117 0 20.456 4.088 27.596 10.746l-11.826 11.83c-4.278-4.088-9.714-6.17-15.77-6.17-10.745 0-19.841 7.26-23.08 17.007A24.78 24.78 0 0025.74 50c0 2.722.47 5.362 1.295 7.837 3.242 9.752 12.334 17.008 23.08 17.008 5.547 0 10.27-1.465 13.967-3.94a18.973 18.973 0 008.233-12.449h-22.2V42.501h38.848c.487 2.698.751 5.51.751 8.435 0 12.565-4.496 23.142-12.3 30.32-6.823 6.302-16.162 9.994-27.3 9.994A41.232 41.232 0 018.864 50a41.174 41.174 0 014.39-18.521z" fill="#1C1C1C"/></svg>