<svg width="126" height="24" viewBox="0 0 126 24" fill="none" xmlns="http://www.w3.org/2000/svg">
<path d="M124.786 22.4H119.881L116.252 15.328L114.135 17.408V22.4H109.733V0.895996H114.135V12.64L119.578 6.656H124.921L119.377 12.448L124.786 22.4Z" fill="#FF3E00"/>
<path d="M107.821 22.4H103.419V12.864C103.419 10.432 102.68 9.75999 100.597 9.75999C98.3118 9.75999 97.203 10.976 97.203 13.376V22.4H92.835V6.65599H97.0014V8.95999C98.0094 7.19999 99.6894 6.23999 102.344 6.23999C105.502 6.23999 107.821 8.06399 107.821 11.488V22.4Z" fill="#FF3E00"/>
<path d="M86.5072 16.416L86.5408 14.688C86.104 15.104 85.3312 15.328 83.7184 15.616C81.232 16.064 80.4256 16.736 80.4256 18.08C80.4256 19.264 81.1648 19.84 82.5424 19.84C84.7936 19.84 86.4736 18.272 86.5072 16.416ZM90.9088 22.4H86.8432C86.7088 22.016 86.608 21.472 86.5744 20.992C85.5328 22.08 83.7856 22.816 81.568 22.816C77.8048 22.816 76.0576 21.056 76.0576 18.496C76.0576 13.952 79.2496 13.44 83.6512 12.864C85.8352 12.576 86.44 12.16 86.44 11.072C86.44 10.048 85.3648 9.43999 83.6512 9.43999C81.6688 9.43999 80.8624 10.368 80.6608 11.776H76.5952C76.6624 8.51199 78.544 6.23999 83.8528 6.23999C89.0944 6.23999 90.9088 8.47999 90.9088 12.448V22.4Z" fill="#FF3E00"/>
<path d="M66.7028 19.424C68.8868 19.424 70.4324 17.472 70.4324 14.656C70.4324 11.424 69.2228 9.792 66.6692 9.792C64.25 9.792 63.0068 11.488 63.0068 14.912C63.0068 17.568 64.6196 19.424 66.7028 19.424ZM63.074 22.4H58.874V0.895996H63.1748V8.704C64.418 7.04 66.0308 6.24 68.0804 6.24C72.3476 6.24 74.8676 9.6 74.8676 14.368C74.8676 19.68 71.8772 22.816 67.7108 22.816C65.6948 22.816 64.1492 22.08 63.1076 20.48L63.074 22.4Z" fill="#FF3E00"/>
<path d="M56.9592 22.4H52.8264V20.192C51.684 21.984 49.9704 22.816 47.6856 22.816C44.3928 22.816 42.0744 20.48 42.0744 17.024V9.6V6.65601H46.4424V16.384C46.4424 18.368 47.3832 19.328 49.2312 19.328C51.4488 19.328 52.6248 17.824 52.6248 15.744V6.65601H56.9592V22.4Z" fill="#FF3E00"/>
<path d="M38.1794 22.4H33.8786V9.6H31.4258V6.656H33.8786C33.8786 2.816 36.197 0.895996 40.901 0.895996V4.256C38.6834 4.256 38.1794 4.832 38.1794 6.656V22.4Z" fill="#FF3E00"/>
<path d="M41.0018 6.656H39.0811V9.6H41.0018H42.0744V6.65601L41.0018 6.656Z" fill="#FF3E00"/>
<path d="M26.7562 16.416L26.7898 14.688C26.353 15.104 25.5802 15.328 23.9674 15.616C21.481 16.064 20.6746 16.736 20.6746 18.08C20.6746 19.264 21.4138 19.84 22.7914 19.84C25.0426 19.84 26.7226 18.272 26.7562 16.416ZM31.1578 22.4H27.0922C26.9578 22.016 26.857 21.472 26.8234 20.992C25.7818 22.08 24.0346 22.816 21.817 22.816C18.0538 22.816 16.3066 21.056 16.3066 18.496C16.3066 13.952 19.4986 13.44 23.9002 12.864C26.0842 12.576 26.689 12.16 26.689 11.072C26.689 10.048 25.6138 9.43999 23.9002 9.43999C21.9178 9.43999 21.1114 10.368 20.9098 11.776H16.8442C16.9114 8.51199 18.793 6.23999 24.1018 6.23999C29.3434 6.23999 31.1578 8.47999 31.1578 12.448V22.4Z" fill="#FF3E00"/>
<path d="M15.04 11.424H10.84C10.6048 9.88799 9.73124 9.34399 7.74884 9.34399C6.10244 9.34399 5.16164 9.72799 5.16164 10.656C5.16164 11.584 6.06884 11.968 7.84964 12.448C9.73124 12.96 11.512 13.312 12.7888 13.792C14.536 14.464 15.5104 15.552 15.5104 17.6C15.5104 20.864 12.9904 22.816 8.28644 22.816C3.21284 22.816 0.390442 20.544 0.323242 17.344H4.82564C4.82564 18.816 6.13604 19.68 8.25284 19.68C9.79844 19.68 11.176 19.232 11.176 18.048C11.176 16.928 9.93284 16.576 8.52164 16.256C5.73284 15.616 4.18724 15.168 3.01124 14.464C1.46564 13.536 0.928042 12.32 0.928042 10.912C0.928042 8.25599 2.84324 6.23999 7.88324 6.23999C12.6544 6.23999 14.8048 8.03199 15.04 11.424Z" fill="#FF3E00"/>
</svg>
